<?xml version="1.0" standalone="no"?>
<!DOCTYPE svg PUBLIC "-//W3C//DTD SVG 20010904//EN"
 "http://www.w3.org/TR/2001/REC-SVG-20010904/DTD/svg10.dtd">
<svg version="1.0" xmlns="http://www.w3.org/2000/svg"
 width="151.000000pt" height="140.000000pt" viewBox="0 0 151.000000 140.000000"
 preserveAspectRatio="xMidYMid meet">
<metadata>
Created by potrace 1.16, written by Peter Selinger 2001-2019
</metadata>
<g transform="translate(0.000000,140.000000) scale(0.100000,-0.100000)"
fill="#000000" stroke="none">
<path d="M833 1373 c-47 -38 -52 -106 -11 -150 56 -60 168 -22 168 58 0 21 3
21 79 17 98 -6 170 -38 234 -107 69 -73 99 -141 105 -232 l4 -75 -157 -370
c-172 -404 -193 -438 -258 -432 l-32 3 -5 187 -5 186 -31 39 c-90 113 -253
110 -341 -6 l-33 -43 0 -178 c0 -191 0 -190 -53 -190 -50 1 -62 21 -182 295
-245 558 -228 513 -222 583 10 130 94 244 224 305 88 41 182 43 264 5 91 -42
89 -37 89 -218 0 -145 -2 -160 -19 -169 -27 -15 -44 -65 -37 -105 17 -91 142
-103 185 -19 20 40 13 73 -24 110 l-35 35 0 178 0 179 -32 24 c-56 42 -114 66
-187 79 -226 39 -450 -119 -492 -347 -20 -111 -14 -132 165 -545 92 -212 177
-396 189 -408 48 -52 131 -67 202 -38 l35 15 0 194 c0 217 3 227 74 261 43 20
79 20 123 -1 67 -31 73 -54 73 -266 l0 -187 28 -11 c15 -7 48 -14 73 -16 54
-6 116 21 147 64 11 16 91 192 178 393 150 347 158 369 162 441 14 272 -190
473 -477 469 -31 0 -76 2 -101 5 -34 4 -50 1 -67 -12z"/>
</g>
</svg>
