<svg xmlns="http://www.w3.org/2000/svg" viewBox="0 0 48 60" x="0px" y="0px">
    <title>28 antivirus</title>
    <path
        d="M45.1,7.511a.747.747,0,0,0-.533-.253A40.751,40.751,0,0,1,32.88,4.826,48.741,48.741,0,0,1,24.432.138a.745.745,0,0,0-.864,0A48.712,48.712,0,0,1,15.12,4.826,40.751,40.751,0,0,1,3.431,7.258a.751.751,0,0,0-.719.812c.077.9,1.892,22.086,4.107,25.957,5.874,10.261,16.5,13.791,16.951,13.936a.753.753,0,0,0,.46,0c.45-.145,11.077-3.675,16.951-13.936.787-1.375,1.567-4.832,2.385-10.567a.749.749,0,1,0-1.484-.211c-.971,6.81-1.733,9.215-2.2,10.034C34.765,42.218,25.57,45.883,24,46.456c-1.571-.571-10.755-4.222-15.88-13.173C6.484,30.426,4.852,15.256,4.272,8.709a41.292,41.292,0,0,0,11.4-2.488A48.167,48.167,0,0,0,24,1.66a48.167,48.167,0,0,0,8.329,4.561,41.343,41.343,0,0,0,11.4,2.488c-.171,1.9-.655,7.042-1.32,12.16a.749.749,0,1,0,1.486.193c.838-6.445,1.39-12.927,1.4-12.992A.752.752,0,0,0,45.1,7.511Z" />
    <path
        d="M8.033,16.106a.75.75,0,1,0-1.49.17c.48,4.215,1.721,14.237,2.88,16.261,4.243,7.412,11.411,11,14.3,12.2a.752.752,0,0,0,.572,0c2.871-1.179,10.011-4.729,14.286-12.2,1.215-2.12,2.549-13.317,2.929-16.7a.749.749,0,1,0-1.489-.168c-.949,8.436-2.05,14.916-2.741,16.122A28.289,28.289,0,0,1,24.008,43.229C21.1,41.98,14.6,38.571,10.724,31.793,10.037,30.593,8.981,24.436,8.033,16.106Z" />
    <path
        d="M16.5,9.063a.767.767,0,0,0,.276-.052A46.79,46.79,0,0,0,24,5.237a46.777,46.777,0,0,0,7.225,3.774.75.75,0,0,0,.552-1.395,46.321,46.321,0,0,1-7.374-3.9.749.749,0,0,0-.806,0,46.291,46.291,0,0,1-7.375,3.9A.75.75,0,0,0,16.5,9.063Z" />
    <path
        d="M12.639,21.046a.749.749,0,0,0-.75.749v3.119a.75.75,0,0,0,1.5,0V24.1h2.7a7.911,7.911,0,0,0,1.764,4.283L15.932,30.3l-.573-.573A.75.75,0,1,0,14.3,30.791l1.1,1.1v0h0l1.1,1.1a.749.749,0,1,0,1.059-1.06l-.572-.573,1.913-1.912a7.9,7.9,0,0,0,4.293,1.81v2.706h-.81a.749.749,0,0,0,0,1.5h3.119a.749.749,0,1,0,0-1.5H24.7v-2.7A7.9,7.9,0,0,0,29.03,29.5l1.891,1.891-.572.572a.75.75,0,0,0,1.06,1.061l2.2-2.206a.75.75,0,1,0-1.06-1.06l-.573.573L30.094,28.44A7.91,7.91,0,0,0,31.9,24.1h2.709v.81a.75.75,0,0,0,1.5,0V21.8a.75.75,0,0,0-1.5,0v.81H31.9a7.909,7.909,0,0,0-1.813-4.34L32,16.356l.573.573a.75.75,0,0,0,1.059-1.061l-1.1-1.1h0l-1.1-1.1a.75.75,0,0,0-1.059,1.061l.572.572-1.914,1.913A7.908,7.908,0,0,0,24.7,15.443v-2.7h.81a.749.749,0,0,0,0-1.5H22.388a.749.749,0,0,0,0,1.5h.81v2.706a7.909,7.909,0,0,0-4.29,1.807L16.974,15.32l.572-.572a.749.749,0,1,0-1.059-1.06l-1.1,1.1h0v0l-1.1,1.1a.75.75,0,0,0,1.06,1.06l.573-.573,1.938,1.938a7.909,7.909,0,0,0-1.767,4.287h-2.7V21.8A.749.749,0,0,0,12.639,21.046Zm15.976,6.8a.694.694,0,0,0-.108.071.774.774,0,0,0-.064.1,6.439,6.439,0,0,1-10.9-4.63c0-.009,0-.017,0-.026s0-.016,0-.025a6.448,6.448,0,1,1,11.068,4.513Z" />
    <path
        d="M24,21.1a2.257,2.257,0,1,0,2.256,2.256A2.259,2.259,0,0,0,24,21.1Zm0,3.013a.757.757,0,1,1,.757-.757A.758.758,0,0,1,24,24.111Z" />
    <path d="M27.976,23.707a.791.791,0,1,0,.791-.791A.791.791,0,0,0,27.976,23.707Z" />
    <path d="M26.726,25.518a.79.79,0,1,0,.791.79A.79.79,0,0,0,26.726,25.518Z" />
    <path d="M22.821,27.353a.791.791,0,1,0,.791.791A.791.791,0,0,0,22.821,27.353Z" />
    <circle cx="19.428" cy="24.497" r="0.79" />
    <circle cx="26.297" cy="19.219" r="0.79" />
    <path d="M22.493,19.611a.79.79,0,1,0-.79.79A.79.79,0,0,0,22.493,19.611Z" />
    <!-- <text x="0" y="63" fill="#000000"
        font-size="5px" font-weight="bold"
        font-family="'Helvetica Neue', Helvetica, Arial-Unicode, Arial, Sans-serif">Created by Koson
        Rattanaphan</text><text x="0" y="68" fill="#000000" font-size="5px" font-weight="bold"
        font-family="'Helvetica Neue', Helvetica, Arial-Unicode, Arial, Sans-serif">from the Noun Project</text> -->
</svg>