<svg xmlns="http://www.w3.org/2000/svg" xmlns:xlink="http://www.w3.org/1999/xlink" viewBox="0 0 60 75" version="1.1"
    x="0px" y="0px">
    <title>48 -Child- (Outline)</title>
    <desc>Created with Sketch.</desc>
    <g stroke="none" stroke-width="1" fill="none" fill-rule="evenodd">
        <g transform="translate(-959.000000, -850.000000)" fill="#000000">
            <g transform="translate(959.000000, 850.000000)">
                <path
                    d="M31.0159,58.0003 C30.4629,58.0003 30.0159,57.5523 30.0159,57.0003 L30.0159,44.0003 C30.0159,43.4483 30.4629,43.0003 31.0159,43.0003 C31.5689,43.0003 32.0159,43.4483 32.0159,44.0003 L32.0159,57.0003 C32.0159,57.5523 31.5689,58.0003 31.0159,58.0003" />
                <path
                    d="M59.0159,60.0003 L1.0159,60.0003 C0.4629,60.0003 0.0159,59.5523 0.0159,59.0003 C0.0159,58.4483 0.4629,58.0003 1.0159,58.0003 L59.0159,58.0003 C59.5689,58.0003 60.0159,58.4483 60.0159,59.0003 C60.0159,59.5523 59.5689,60.0003 59.0159,60.0003" />
                <path
                    d="M31.0159,17.0003 C28.8099,17.0003 27.0159,18.7943 27.0159,21.0003 C27.0159,23.2063 28.8099,25.0003 31.0159,25.0003 C33.2219,25.0003 35.0159,23.2063 35.0159,21.0003 C35.0159,18.7943 33.2219,17.0003 31.0159,17.0003 M31.0159,27.0003 C27.7069,27.0003 25.0159,24.3093 25.0159,21.0003 C25.0159,17.6913 27.7069,15.0003 31.0159,15.0003 C34.3249,15.0003 37.0159,17.6913 37.0159,21.0003 C37.0159,24.3093 34.3249,27.0003 31.0159,27.0003" />
                <path
                    d="M28.7473,60.014 C28.5093,60.014 28.2653,59.994 28.0183,59.954 C26.2623,59.669 25.0373,57.641 25.0373,56 L25.0183,35.294 L19.2873,40.519 C18.3203,41.386 17.1023,41.749 15.9423,41.518 C14.8403,41.3 13.9103,40.556 13.3933,39.478 C12.6653,37.963 13.0073,36.199 14.2443,35.088 L25.2963,25.16 C25.4473,25.023 25.6033,24.895 25.7663,24.773 L26.9053,23.919 C26.9123,23.915 26.9853,23.859 26.9913,23.854 C27.4383,23.535 28.0723,23.626 28.3953,24.07 C28.7183,24.513 28.6383,25.123 28.1973,25.45 C28.1923,25.454 28.1583,25.479 28.1523,25.483 L26.9673,26.372 C26.8533,26.457 26.7403,26.55 26.6323,26.647 L15.5803,36.576 C15.0113,37.088 14.8563,37.906 15.1953,38.612 C15.4413,39.125 15.8453,39.46 16.3313,39.557 C16.8723,39.66 17.4583,39.473 17.9443,39.036 L25.3423,32.292 C25.6363,32.026 26.0573,31.958 26.4193,32.117 C26.7813,32.276 27.0163,32.635 27.0163,33.031 L27.0373,55.999 C27.0373,56.826 27.7303,57.881 28.3393,57.98 C28.9163,58.075 29.4393,57.972 29.7483,57.709 C29.9483,57.538 30.0463,57.306 30.0463,57 C30.0463,56.448 30.4933,56 31.0463,56 C31.5993,56 32.0463,56.448 32.0463,57 C32.0463,57.321 32.1433,57.558 32.3423,57.728 C32.6343,57.975 33.1373,58.071 33.6923,57.98 C34.3163,57.879 35.0553,56.806 35.0553,56 L35.0163,33.033 C35.0153,32.637 35.2483,32.278 35.6113,32.117 C35.9723,31.956 36.3943,32.025 36.6893,32.292 L44.0923,39.041 C44.5743,39.474 45.1643,39.663 45.7003,39.557 C46.1863,39.46 46.5903,39.125 46.8363,38.613 C47.1753,37.906 47.0203,37.088 46.4513,36.576 L35.3993,26.647 C35.2913,26.55 35.1783,26.457 35.0623,26.37 L33.9273,25.521 L34.4613,24.671 L35.0723,23.88 C35.0873,23.891 35.1663,23.951 35.1803,23.963 L36.2643,24.771 C36.4283,24.895 36.5843,25.023 36.7353,25.16 L47.7873,35.089 C49.0243,36.2 49.3663,37.964 48.6393,39.478 C48.1213,40.556 47.1913,41.3 46.0893,41.518 C44.9213,41.75 43.7093,41.386 42.7493,40.523 L37.0193,35.3 L37.0553,55.999 C37.0553,57.634 35.7543,59.671 34.0133,59.954 C32.8723,60.141 31.7903,59.884 31.0463,59.251 L31.0343,59.241 C30.4353,59.745 29.6283,60.014 28.7473,60.014" />
                <path
                    d="M9.0159,2.0003 C5.1569,2.0003 2.0159,5.5893 2.0159,10.0003 C2.0159,14.4113 5.1569,18.0003 9.0159,18.0003 C12.8749,18.0003 16.0159,14.4113 16.0159,10.0003 C16.0159,5.5893 12.8749,2.0003 9.0159,2.0003 M9.0159,20.0003 C4.0529,20.0003 0.0159,15.5143 0.0159,10.0003 C0.0159,4.4863 4.0529,0.0003 9.0159,0.0003 C13.9789,0.0003 18.0159,4.4863 18.0159,10.0003 C18.0159,15.5143 13.9789,20.0003 9.0159,20.0003" />
                <path
                    d="M5.0159,10.0003 C4.4629,10.0003 4.0159,9.5523 4.0159,9.0003 C4.0159,6.3543 6.2529,4.0003 8.0159,4.0003 C8.5689,4.0003 9.0159,4.4483 9.0159,5.0003 C9.0159,5.5523 8.5689,6.0003 8.0159,6.0003 C7.5469,6.0003 6.0159,7.2793 6.0159,9.0003 C6.0159,9.5523 5.5689,10.0003 5.0159,10.0003" />
                <path
                    d="M14.0159,39.0003 C13.9739,39.0003 12.9109,38.9993 12.8689,38.9983 C11.0389,38.9543 9.5289,37.7993 9.0179,36.0553 C8.4779,34.2093 9.1989,32.2373 10.8119,31.1473 C10.9889,31.0283 11.1589,30.8973 11.3189,30.7553 C11.8549,30.2843 12.1179,29.6003 12.0379,28.8783 C11.9569,28.1343 11.5369,27.5013 10.8859,27.1433 C9.0889,26.1523 8.0159,24.6033 8.0159,23.0003 C8.0159,22.4483 8.4629,22.0003 9.0159,22.0003 C9.5689,22.0003 10.0159,22.4483 10.0159,23.0003 C10.0159,24.0173 10.9639,24.9023 11.8519,25.3923 C13.0629,26.0593 13.8749,27.2813 14.0269,28.6613 C14.1769,30.0393 13.6719,31.3493 12.6399,32.2573 C12.4159,32.4543 12.1799,32.6363 11.9319,32.8043 C10.8329,33.5463 10.7099,34.7163 10.9379,35.4933 C11.2059,36.4133 11.9469,36.9753 12.9159,36.9993 C12.9909,37.0003 13.9759,37.0003 14.0159,37.0003 C14.5689,37.0003 15.0159,37.4483 15.0159,38.0003 C15.0159,38.5523 14.5689,39.0003 14.0159,39.0003" />
                <path
                    d="M12.0159,24.0003 L6.0159,24.0003 C5.7159,24.0003 5.4329,23.8663 5.2429,23.6343 C5.0529,23.4023 4.9769,23.0983 5.0359,22.8043 L5.9009,18.4793 L7.8619,18.8723 L7.2359,22.0003 L10.7959,22.0003 L10.1699,18.8723 L12.1309,18.4793 L12.9959,22.8043 C13.0549,23.0983 12.9789,23.4023 12.7889,23.6343 C12.5989,23.8663 12.3159,24.0003 12.0159,24.0003" />
            </g>
        </g>
    </g>
    <!--<text x="0" y="75" fill="#000000" font-size="5px" font-weight="bold"
        font-family="'Helvetica Neue', Helvetica, Arial-Unicode, Arial, Sans-serif">Created by Ben Davis</text><text
        x="0" y="80" fill="#000000" font-size="5px" font-weight="bold"
        font-family="'Helvetica Neue', Helvetica, Arial-Unicode, Arial, Sans-serif">from the Noun Project</text> -->
</svg>