<svg xmlns="http://www.w3.org/2000/svg" xmlns:xlink="http://www.w3.org/1999/xlink" version="1.1" x="0px" y="0px"
    viewBox="0 0 100 125" style="enable-background:new 0 0 100 100;" xml:space="preserve">
    <path
        d="M92.5,35C77.337,35,65,22.664,65,7.5C65,6.119,63.881,5,62.5,5S60,6.119,60,7.5C60,22.664,47.663,35,32.5,35  c-1.381,0-2.5,1.119-2.5,2.5s1.119,2.5,2.5,2.5C47.663,40,60,52.336,60,67.5c0,1.381,1.119,2.5,2.5,2.5s2.5-1.119,2.5-2.5  C65,52.336,77.337,40,92.5,40c1.381,0,2.5-1.119,2.5-2.5S93.881,35,92.5,35z M62.5,55c-3.297-7.883-9.616-14.202-17.5-17.5  c7.884-3.297,14.203-9.616,17.5-17.5c3.297,7.883,9.616,14.202,17.5,17.5C72.116,40.797,65.797,47.116,62.5,55z" />
    <path
        d="M7.5,75C17.149,75,25,82.851,25,92.5c0,1.381,1.119,2.5,2.5,2.5s2.5-1.119,2.5-2.5C30,82.851,37.851,75,47.5,75  c1.381,0,2.5-1.119,2.5-2.5S48.881,70,47.5,70C37.851,70,30,62.149,30,52.5c0-1.381-1.119-2.5-2.5-2.5S25,51.119,25,52.5  C25,62.149,17.149,70,7.5,70C6.119,70,5,71.119,5,72.5S6.119,75,7.5,75z M27.5,62.802c2.146,4.15,5.548,7.551,9.698,9.698  c-4.15,2.146-7.552,5.548-9.698,9.698c-2.146-4.15-5.548-7.551-9.698-9.698C21.952,70.354,25.354,66.952,27.5,62.802z" />
    <!-- <text x="0" y="115" fill="#000000" font-size="5px" font-weight="bold"
        font-family="'Helvetica Neue', Helvetica, Arial-Unicode, Arial, Sans-serif">Created by Arthur Shlain</text><text
        x="0" y="120" fill="#000000" font-size="5px" font-weight="bold"
        font-family="'Helvetica Neue', Helvetica, Arial-Unicode, Arial, Sans-serif">from the Noun Project</text> -->
        </svg>